<svg id="图层_1" data-name="图层 1" xmlns="http://www.w3.org/2000/svg" xmlns:xlink="http://www.w3.org/1999/xlink" viewBox="0 0 1500 1080"><defs><style>.cls-1{fill:none;}.cls-2{clip-path:url(#clip-path);}</style><clipPath id="clip-path"><rect class="cls-1" x="398" y="188" width="703.88" height="705.84"/></clipPath></defs><title>放大镜</title><g class="cls-2"><path d="M1094.94,852.77L918.36,676.19a294.21,294.21,0,0,0,70.73-191.72c0-163-132.62-295.61-295.61-295.61S397.88,321.48,397.88,484.47,530.5,780.15,693.49,780.15a294.64,294.64,0,0,0,191.72-70.73L1061.79,886a23.47,23.47,0,1,0,33.16-33.24h0ZM444.79,484.47c0-137.12,111.58-248.7,248.7-248.7s248.7,111.58,248.7,248.7-111.58,248.7-248.7,248.7-248.7-111.58-248.7-248.7h0Zm0,0"/></g></svg>